<svg xmlns="http://www.w3.org/2000/svg" width="1600" height="1600" viewBox="0 0 400 400"><style>.o{fill:#050505;}.w{fill:#f9f9f9;}.b1{fill:#67d757;}.b2{fill:#30a220;}.b3{fill:#217a15;}.b4{fill:#09490f;}.a1{fill:#e483ef;}.a2{fill:#dc2fef;}.a3{fill:#dc2fef;}</style><g class="o"><path d="M190 127h3v3h-3zm3 13h4v3h-4zm-42 0h6v6h-6z"/><path d="M151 133h3v7h-3zm10 0h6v4h-6z"/><path d="M157 137h17v6h-17zm3 13h14v3h-14zm17-13h7v16h-7z"/><path d="M184 137h6v6h-6zm0 10h10v6h-10z"/><path d="M187 143h10v4h-10z"/><path d="M190 140h3v3h-3zm-6-10h3v7h-3z"/><path d="M187 130h6v3h-6zm-36 0h10v3h-10zm16 13h7v7h-7zm-10 0h7v7h-7z"/><path d="M164 147h3v3h-3zm29-20h4v6h-4z"/><path d="M194 133h3v7h-3z"/></g><g class="w"><path d="M154 133h7v4h-7z"/><path d="M154 137h3v3h-3zm10 6h3v4h-3zm20 0h3v4h-3zm3-10h7v4h-7z"/><path d="M190 137h4v3h-4z"/></g></svg>