<svg xmlns="http://www.w3.org/2000/svg" width="1600" height="1600" viewBox="0 0 400 400"><style>.o{fill:#050505;}.w{fill:#f9f9f9;}.b1{fill:#ffd8c5;}.b2{fill:#ff96a9;}.b3{fill:#fe588b;}.b4{fill:#c92f45;}.a1{fill:#ffd8c5;}.a2{fill:#ff96a9;}.a3{fill:#fe588b;}</style><g class="o"><path d="M190 173h-37v-3h-10v-4h-6v4h3v3h-3v4h6v3h10v4h37v-4h3v-3h-3v-4zm-40 4h-3v-4h3v4zm7 3v-3h3v3h-3zm6 0v-3h4v3h-4zm7 0v-3h3v3h-3zm7 0v-3h3v3h-3zm10 0h-4v-3h4v3z"/><path d="M190 170h3v3h-3z"/><path d="M193 166h4v4h-4zm0 7h4v4h-4z"/></g><g class="w"><path d="M137 170h3v3h-3zm10 3h3v4h-3zm10 4h3v3h-3zm6 0h4v3h-4zm7 0h3v3h-3zm7 0h3v3h-3zm6 0h4v3h-4zm7-4h3v4h-3z"/><path d="M193 170h4v3h-4z"/></g></svg>